# xmcd
#
# Track frame offsets: 
#        150
#        18097
#        36006
#        51736
#        67462
#        88145
#        105210
#        122239
#        141653
#        160988
#        176648
#
# Disc length: 2591 seconds
#
# Revision: 3
# Processed by: cddbd v1.5.2PL0 Copyright (c) Steve Scherf et al.
# Submitted via: ExactAudioCopy v1.0b3
#
DISCID=a20a1d0b
DTITLE=Keyshia Cole - Calling All Hearts
DYEAR=2010
DGENRE=Soul
TTITLE0=I Ain't Thru (feat. Nicki Minaj)
TTITLE1=Long Way Down
TTITLE2=Tired Of Doing Me (feat. Tank)
TTITLE3=If I Fall In Love Again (feat. Faith Evans)
TTITLE4=So Impossible
TTITLE5=Sometimes
TTITLE6=Take Me Away
TTITLE7=What You Do To Me
TTITLE8=Last Hangover (feat. Timbaland)
TTITLE9=Thank You (feat. Dr. Yvonne Cole)
TTITLE10=Better Me
EXTD=
EXTT0=
EXTT1=
EXTT2=
EXTT3=
EXTT4=
EXTT5=
EXTT6=
EXTT7=
EXTT8=
EXTT9=
EXTT10=
PLAYORDER=
